<svg viewBox="0 0 512 512" xml:space="preserve" xmlns="http://www.w3.org/2000/svg"><circle cx="255.999" cy="256" r="246.455" fill="#19ce60" class="fill-000000 fill-1cd981"></circle><g fill="#ffffff" class="fill-ffffff"><path d="M55.486 231.011h28.315s25.719 38.858 26.483 39.905c.769 1.041.861 0 .861 0-1.184-6.02-2.473-8.717-2.473-18.328v-21.577h28.205v71.977h-28.205s-25.189-36.781-25.952-37.801c-.759-1.018-.862 0-.862 0 .971 4.969 1.832 5.795 1.832 14.416v23.385H55.484l.002-71.977zM181.342 276.93l3.85-14.607c.829-2.959 1.4-7.21 1.4-7.21.122-.653 1.025-.653 1.18.032.185 1.002.635 4.063 1.496 7.114l3.924 14.672h-11.85zm-5.278 17.088h22.299l2.688 8.969h31.222l-28.962-71.975h-32.623l-28.211 71.977h31.228l2.359-8.971zM306.575 231.011l-31.436 71.977h-24.981l-31.438-71.977h30.792l10.769 32.743c1.184 3.531 2.044 11.287 2.044 11.287.203.611.924.57 1.041 0 0 0 .861-7.756 2.048-11.287l10.368-32.743h30.793zM312.71 231.011h54.595v19.669H342.43v6.869h22.721v18.709H342.43v7.066h25.733v19.664H312.71v-71.977zM409.026 250.68h2.267c5.059 0 9.47.661 9.47 6.202 0 5.342-4.845 6.015-9.692 6.015h-2.044V250.68zm-28.851 52.312h28.851v-23.106s.188-.82.738 0l12.725 23.104h34.027l-17.662-23.393c-1.62-2.096-4.344-3.895-4.953-4.29-.607-.405 0-.581 0-.581 10.979-3.244 15.72-7.821 15.72-18.708 0-18.136-15.509-25.01-33.81-25.01h-35.636v71.984z"></path></g></svg>