<?xml version="1.0" standalone="no"?>
<!DOCTYPE svg PUBLIC "-//W3C//DTD SVG 20010904//EN"
 "http://www.w3.org/TR/2001/REC-SVG-20010904/DTD/svg10.dtd">
<svg version="1.0" xmlns="http://www.w3.org/2000/svg"
 width="1280.000000pt" height="960.000000pt" viewBox="0 0 1280.000000 960.000000"
 preserveAspectRatio="xMidYMid meet">

<g transform="translate(0.000000,960.000000) scale(0.100000,-0.100000)"
fill="#000000" stroke="none">
<path d="M4780 6168 c-25 -17 -92 -57 -150 -90 -58 -32 -130 -76 -160 -97 -44
-31 -282 -180 -350 -219 -12 -8 -10 -17 17 -58 17 -27 52 -84 78 -126 25 -43
48 -78 52 -78 11 0 107 61 233 149 122 86 172 116 395 243 84 48 109 68 107
81 -2 11 -26 50 -53 89 -28 38 -57 85 -66 104 -21 43 -44 43 -103 2z m65 -8
c-6 -10 -105 -62 -105 -56 0 2 21 18 47 35 47 31 69 39 58 21z m25 -28 c0 -8
-123 -92 -135 -92 -2 0 -52 -30 -109 -67 -163 -105 -226 -145 -290 -181 -33
-19 -74 -44 -90 -57 -50 -37 -76 -48 -76 -32 0 7 29 31 65 52 167 102 224 136
274 165 29 17 90 57 135 88 78 54 203 129 219 131 4 1 7 -3 7 -7z m-140 -36
c0 -9 -265 -179 -344 -222 -27 -14 -74 -43 -105 -63 -90 -60 -131 -83 -131
-73 0 5 39 33 88 62 48 29 143 90 212 136 69 45 159 100 200 123 78 42 80 43
80 37z m171 -12 c16 -19 4 -30 -83 -74 -76 -39 -382 -224 -504 -305 -89 -59
-100 -63 -111 -48 -11 14 -8 20 21 37 19 12 76 47 128 79 51 32 118 73 148 92
78 48 230 142 308 192 37 24 70 43 73 43 4 0 13 -7 20 -16z m19 -84 c-14 -11
-38 -26 -55 -34 -16 -8 -104 -62 -195 -121 -309 -199 -415 -264 -420 -258 -3
3 1 8 8 10 8 3 43 28 79 55 58 45 140 96 323 203 30 18 102 62 160 99 100 63
153 87 100 46z m55 -19 c3 -5 -52 -42 -122 -82 -191 -107 -264 -152 -397 -246
-141 -99 -175 -118 -187 -106 -8 8 127 104 201 143 28 14 90 54 230 146 99 65
250 154 262 154 4 0 9 -4 13 -9z m-230 -46 c-29 -24 -157 -96 -143 -80 8 9
160 102 168 104 3 0 -8 -11 -25 -24z m-185 -110 c0 -2 -10 -9 -22 -15 -22 -11
-22 -10 -4 4 21 17 26 19 26 11z m-100 -60 c0 -2 -10 -9 -22 -15 -22 -11 -22
-10 -4 4 21 17 26 19 26 11z m-140 -96 c-35 -30 -90 -64 -90 -55 0 6 111 86
119 86 3 -1 -10 -14 -29 -31z"/>
<path d="M3635 5994 c-16 -2 -56 -9 -87 -14 -31 -6 -94 -15 -140 -20 -219 -26
-448 -50 -498 -52 -64 -3 -60 9 -40 -153 20 -162 11 -151 121 -147 52 2 132
10 178 17 47 8 87 13 89 10 3 -3 -17 -28 -44 -57 -27 -29 -99 -107 -161 -173
-61 -66 -141 -145 -177 -175 -36 -30 -66 -61 -66 -68 0 -7 39 -54 88 -103 48
-50 88 -96 90 -103 2 -7 -38 -52 -88 -98 -49 -47 -90 -87 -90 -90 0 -2 41 -46
90 -98 50 -52 90 -102 90 -112 0 -26 -66 -95 -127 -135 -29 -18 -53 -38 -53
-44 0 -6 14 -25 32 -42 18 -18 52 -57 77 -87 25 -30 52 -60 60 -67 14 -10 10
-17 -26 -55 -24 -24 -64 -67 -89 -96 l-47 -53 30 -27 c16 -15 58 -57 92 -93
l62 -66 -58 -67 c-31 -37 -72 -75 -90 -86 -18 -11 -33 -23 -33 -28 0 -9 116
-159 153 -199 12 -12 26 -23 32 -23 5 0 93 83 195 184 102 102 238 236 304
299 l118 115 127 -130 c114 -118 150 -150 269 -241 20 -15 76 -66 125 -113 61
-60 91 -83 101 -77 8 4 141 133 297 286 155 153 285 276 289 275 13 -5 231
-208 318 -295 45 -46 88 -83 95 -83 14 0 197 195 197 210 0 5 -10 16 -22 25
-13 8 -58 50 -101 91 l-77 77 98 96 99 97 -89 94 c-48 51 -88 96 -88 100 0 3
40 48 89 100 l89 94 -386 384 c-213 212 -397 391 -410 400 -23 15 -27 12 -185
-150 -89 -91 -177 -182 -195 -202 l-34 -37 -106 103 c-159 154 -582 578 -582
583 0 3 19 5 43 6 23 0 69 6 102 13 56 12 60 14 62 42 2 16 -5 81 -15 144 -19
127 -16 124 -97 114z m60 -34 c10 -17 -41 -30 -159 -40 -62 -5 -125 -12 -142
-15 -50 -9 -425 -45 -471 -45 -24 0 -43 4 -43 9 0 11 60 21 125 21 28 0 86 4
130 10 349 44 415 53 455 60 66 11 98 11 105 0z m5 -54 c0 -19 -75 -36 -162
-36 -40 0 -119 -7 -176 -15 -77 -11 -431 -45 -468 -45 -2 0 -4 6 -4 14 0 10
27 14 108 19 114 6 543 51 627 66 73 12 75 12 75 -3z m10 -55 c0 -4 -51 -14
-112 -20 -62 -6 -174 -18 -248 -26 -74 -9 -180 -20 -235 -26 -55 -6 -125 -14
-155 -19 -60 -9 -65 -8 -57 14 4 10 29 16 84 20 149 12 298 27 358 37 51 9
221 23 333 28 17 0 32 -3 32 -8z m4 -40 c9 -14 -14 -19 -145 -31 -199 -17
-415 -40 -537 -56 -102 -14 -135 -14 -120 1 8 8 103 22 233 35 66 6 197 20
290 31 94 10 190 20 215 22 25 2 48 4 52 5 4 1 9 -2 12 -7z m-11 -51 c-12 -5
-75 -14 -140 -20 -65 -6 -154 -15 -198 -20 -44 -6 -164 -20 -267 -33 -104 -13
-188 -20 -188 -16 0 4 8 10 18 13 46 13 497 66 574 67 35 0 81 4 103 8 22 5
58 9 80 9 32 1 36 -1 18 -8z m-4 -35 c-5 -4 -501 -71 -639 -86 -93 -9 -155
-11 -147 -3 7 7 75 16 402 53 348 40 391 44 384 36z m-199 -62 c0 -4 -100
-109 -223 -233 -123 -124 -251 -256 -285 -293 -52 -56 -66 -67 -77 -57 -12 10
-3 25 58 92 39 44 126 130 192 192 66 61 138 133 160 160 66 80 119 133 140
139 31 7 35 8 35 0z m-132 -55 c-52 -64 -478 -488 -490 -488 -4 0 -8 3 -8 6 0
3 84 89 188 192 103 103 214 219 246 257 32 39 68 73 80 77 12 3 22 6 24 7 2
1 -16 -23 -40 -51z m-47 24 c-5 -10 -17 -25 -26 -32 -10 -8 -36 -39 -60 -70
-51 -66 -383 -385 -392 -376 -3 3 16 25 43 48 83 73 147 138 274 278 147 162
186 199 161 152z m223 0 c4 -7 -81 -94 -462 -472 -68 -67 -126 -120 -129 -116
-3 3 2 16 13 28 93 110 545 568 560 568 7 0 15 -4 18 -8z m-55 -120 c-422
-435 -496 -508 -506 -499 -4 4 126 140 288 301 162 162 296 292 298 290 3 -3
-33 -44 -80 -92z m80 35 c-15 -12 -49 -49 -76 -82 -70 -84 -470 -491 -477
-484 -3 3 81 93 187 200 106 107 234 241 286 297 52 56 97 100 100 96 3 -3 -6
-16 -20 -27z m430 -374 c118 -117 211 -213 205 -213 -5 0 -54 46 -108 101 -55
56 -130 125 -166 154 -150 120 -336 306 -325 325 8 13 63 -39 394 -367z m-109
45 c93 -74 280 -259 280 -278 0 -22 -22 -5 -126 98 -60 59 -194 187 -297 285
-103 99 -184 183 -181 189 4 5 56 -41 118 -104 61 -63 154 -149 206 -190z
m-215 144 c66 -64 156 -152 200 -194 237 -228 314 -316 209 -239 -47 34 -544
530 -544 542 0 20 19 4 135 -109z m0 -69 c39 -39 84 -87 101 -105 33 -36 261
-250 308 -290 17 -14 25 -28 19 -31 -6 -4 -28 12 -49 34 -21 22 -113 109 -204
193 -250 232 -340 322 -340 341 0 20 50 -23 165 -142z m-25 -44 c8 -9 49 -47
90 -85 189 -172 341 -327 331 -337 -7 -7 -61 41 -180 159 -93 93 -225 222
-295 288 -69 65 -123 123 -120 128 5 8 108 -83 174 -153z m226 -281 c94 -93
166 -171 161 -175 -5 -3 -109 94 -231 215 -121 122 -240 236 -262 254 -52 41
-106 103 -97 112 7 6 123 -103 429 -406z m836 127 c-53 -49 -185 -178 -292
-286 l-195 -196 -84 78 -84 78 28 33 c28 33 81 88 381 395 l158 162 93 -87 92
-87 -97 -90z m-1239 195 c26 -27 65 -61 88 -75 22 -15 39 -30 37 -35 -7 -18
-248 -267 -333 -343 -92 -82 -215 -210 -233 -243 -9 -17 -15 -13 -53 31 -24
28 -64 70 -89 95 l-45 45 285 287 c157 157 287 287 290 287 3 1 27 -21 53 -49z
m1404 -171 c21 -23 147 -151 280 -284 l243 -243 -78 -81 c-44 -45 -84 -81 -91
-81 -6 0 -140 127 -296 283 l-285 283 88 82 c48 44 90 81 94 81 4 1 25 -18 45
-40z m-1054 -164 c106 -104 235 -229 287 -277 l95 -86 -46 -49 c-25 -26 -63
-69 -84 -95 -20 -27 -42 -48 -48 -48 -13 0 -475 466 -529 534 -38 47 -38 49
-21 70 41 50 138 146 145 144 4 -2 94 -88 201 -193z m884 -51 c40 -36 78 -74
83 -84 8 -14 -35 -63 -251 -281 -144 -145 -272 -276 -286 -291 l-25 -27 -88
76 -88 75 35 47 c45 59 523 551 536 551 5 0 43 -30 84 -66z m-1220 -1 c26 -31
64 -71 83 -89 32 -30 33 -34 21 -57 -7 -13 -35 -41 -61 -61 -26 -20 -112 -102
-190 -182 -180 -185 -316 -314 -330 -314 -7 0 -26 17 -43 37 -18 20 -54 60
-80 89 l-48 52 43 25 c47 27 138 120 180 184 14 21 74 86 134 144 59 57 135
132 168 165 34 34 64 62 68 63 3 1 28 -25 55 -56z m1474 -256 c74 -73 163
-160 199 -194 36 -33 104 -103 151 -155 l86 -94 -84 -82 c-47 -45 -87 -82 -89
-82 -2 0 -53 48 -112 108 -59 59 -132 130 -162 157 -61 56 -283 291 -289 307
-3 10 147 168 160 168 3 0 66 -60 140 -133z m-1160 -67 c90 -94 211 -211 269
-259 160 -135 154 -112 51 -215 l-88 -88 -99 99 c-55 55 -135 132 -179 172
-44 40 -128 125 -187 189 l-108 117 83 77 c45 43 85 77 88 78 4 0 80 -77 170
-170z m918 -75 l83 -85 -54 -60 c-29 -34 -78 -84 -108 -113 -30 -29 -135 -132
-233 -230 -98 -98 -182 -177 -187 -175 -22 8 -161 142 -158 153 5 21 551 593
568 594 3 1 43 -37 89 -84z m-1195 -20 c68 -75 76 -88 65 -102 -27 -32 -447
-445 -550 -539 l-26 -24 -77 80 -76 81 37 46 c21 25 96 102 168 172 71 69 183
181 248 249 66 67 123 122 127 122 4 0 42 -38 84 -85z m1345 -142 c22 -27 73
-74 113 -107 40 -32 123 -113 183 -180 61 -66 138 -146 172 -176 34 -30 62
-59 62 -65 0 -5 -35 -48 -78 -94 l-79 -84 -79 79 c-43 44 -125 122 -183 174
-57 52 -152 149 -211 214 l-107 120 75 83 c42 46 79 83 84 83 4 0 26 -21 48
-47z m-1132 -74 c191 -180 466 -463 454 -467 -6 -2 -25 -22 -41 -45 -16 -23
-47 -62 -69 -86 l-39 -44 -83 70 c-100 84 -501 491 -497 503 5 15 150 170 159
170 5 0 57 -46 116 -101z m993 -163 l79 -89 -282 -279 c-155 -152 -287 -278
-292 -278 -6 0 -45 36 -88 79 l-78 79 53 62 c86 101 507 522 518 518 6 -2 46
-43 90 -92z m-1218 -7 c43 -45 78 -87 78 -94 0 -6 -75 -84 -167 -171 -92 -87
-179 -171 -193 -185 -14 -14 -70 -71 -124 -127 -54 -56 -103 -99 -107 -96 -4
2 -39 44 -78 93 l-69 88 24 13 c28 15 138 139 167 188 10 17 23 32 28 32 4 0
85 77 180 170 95 94 175 170 177 170 3 0 41 -37 84 -81z"/>
<path d="M4883 5848 c-29 -21 -53 -43 -53 -48 0 -5 -25 -28 -55 -52 -30 -23
-55 -47 -55 -51 0 -13 55 -82 124 -158 34 -36 90 -103 126 -150 35 -46 108
-134 162 -196 53 -62 102 -121 108 -133 16 -30 43 -25 87 18 21 20 64 60 96
89 31 28 57 57 57 63 0 12 -43 66 -155 192 -38 43 -93 108 -122 145 -29 36
-78 95 -110 132 -32 36 -75 89 -96 117 -55 77 -55 77 -114 32z m114 -75 c89
-114 197 -245 264 -318 95 -105 192 -225 186 -231 -7 -8 -232 248 -382 435
-55 68 -110 135 -122 150 -11 14 -19 30 -16 34 6 11 10 7 70 -70z m24 -95
c107 -135 178 -219 323 -383 73 -83 79 -92 67 -100 -5 -3 -54 47 -108 112 -54
64 -123 146 -153 182 -30 36 -88 106 -127 155 -40 50 -89 110 -109 134 -22 26
-30 42 -21 42 8 0 65 -64 128 -142z m-82 35 c74 -95 156 -196 311 -379 41 -49
81 -98 89 -109 30 -41 -113 103 -168 168 -31 38 -77 94 -103 125 -26 31 -69
84 -95 117 -26 33 -62 77 -80 98 -18 20 -33 42 -33 47 0 24 23 5 79 -67z m-69
14 c16 -19 49 -59 72 -90 72 -94 141 -178 186 -229 23 -27 42 -52 42 -56 0
-12 -121 112 -168 173 -25 33 -77 97 -114 142 -37 45 -68 84 -68 87 0 16 24 2
50 -27z m1 -74 c35 -43 77 -96 93 -118 16 -22 79 -92 140 -155 135 -140 227
-250 220 -262 -8 -13 -83 65 -185 192 -46 58 -122 146 -169 195 -104 109 -192
225 -172 225 5 0 38 -35 73 -77z m-50 -10 c24 -32 81 -98 127 -147 46 -50 118
-133 160 -185 42 -53 103 -125 136 -159 46 -50 56 -66 45 -73 -9 -5 -18 -4
-25 4 -43 46 -222 258 -284 337 -41 52 -97 117 -123 145 -66 68 -112 135 -94
135 8 0 34 -26 58 -57z m539 -494 c0 -19 -15 -6 -75 66 -93 112 -94 115 -7 28
45 -45 82 -87 82 -94z"/>
<path d="M8768 5242 c-50 -3 -59 -6 -63 -25 -9 -40 -10 -457 -2 -717 4 -140 7
-260 7 -265 0 -6 31 -10 76 -10 l76 0 -2 175 c0 96 -2 182 -2 190 -1 8 0 41 0
73 l2 57 64 0 c73 0 76 3 76 86 l0 54 -66 0 -66 0 3 189 4 189 -25 4 c-14 2
-51 2 -82 0z"/>
<path d="M6507 5234 c-3 -3 -3 -23 0 -44 3 -21 2 -73 -2 -115 l-7 -77 -74 4
-75 3 3 -65 3 -65 73 -3 72 -3 2 -57 c1 -31 0 -83 -1 -116 -2 -32 1 -61 7 -65
6 -3 41 -4 79 -1 l68 5 0 250 c1 316 -1 334 -29 339 -45 10 -114 15 -119 10z"/>
<path d="M7470 5141 l0 -101 -79 0 c-44 0 -82 -3 -84 -7 -2 -5 -2 -36 1 -71
l5 -63 72 3 73 3 4 -123 c3 -68 10 -128 16 -134 6 -6 32 -8 71 -3 l61 7 0 146
c0 81 5 207 12 280 8 90 8 136 1 143 -5 5 -42 13 -81 16 l-72 6 0 -102z"/>
<path d="M9154 5216 c-3 -7 -4 -42 -2 -77 l3 -64 263 4 262 3 0 -24 0 -25
-167 -6 c-91 -4 -212 -7 -268 -7 l-102 0 -7 -49 c-4 -27 -4 -92 0 -144 l7 -95
85 -7 c123 -10 463 -14 557 -7 l80 7 8 49 c4 27 4 52 0 56 -6 6 -334 17 -560
20 -7 0 -13 11 -13 25 0 21 5 25 28 25 77 1 496 20 499 24 2 2 5 66 6 142 l2
139 -200 7 c-110 3 -262 8 -338 11 -106 4 -139 2 -143 -7z"/>
<path d="M7037 5193 c-27 -4 -28 -7 -23 -41 8 -51 -16 -135 -57 -196 -47 -69
-127 -153 -154 -161 -34 -10 -28 -36 23 -110 l46 -66 41 38 c43 37 122 124
152 165 l16 23 17 -25 c50 -74 113 -119 187 -134 28 -6 33 -3 68 50 20 31 34
60 31 65 -2 5 -20 16 -39 25 -41 19 -116 84 -145 124 -12 17 -24 57 -30 106
-20 155 -15 144 -63 143 -23 -1 -55 -4 -70 -6z"/>
<path d="M5834 5176 c-3 -7 -4 -42 -2 -77 l3 -64 103 -3 c114 -3 111 -1 86
-75 -26 -77 -152 -197 -206 -197 -10 0 -18 -4 -18 -9 0 -16 75 -131 85 -131 6
0 33 16 60 35 28 19 74 51 103 70 31 21 60 51 69 71 16 32 33 45 33 24 0 -39
170 -160 206 -146 19 7 54 80 54 114 0 25 -5 30 -32 36 -35 7 -90 60 -143 139
-52 77 -50 80 53 76 l87 -4 3 64 c2 35 -1 68 -6 73 -7 7 -148 9 -327 4 -27 0
-85 2 -128 6 -61 6 -79 5 -83 -6z"/>
<path d="M8084 5138 c-6 -9 5 -583 12 -625 l5 -33 234 0 235 0 5 23 c3 12 4
159 3 327 l-3 305 -150 2 c-82 1 -192 3 -243 5 -52 2 -96 0 -98 -4z m344 -317
l3 -208 -38 -7 c-21 -3 -66 -6 -101 -6 l-63 0 3 208 3 207 90 6 c50 3 92 6 95
7 3 1 6 -92 8 -207z"/>
<path d="M9030 4640 c0 -14 3 -41 6 -61 l6 -37 190 -7 190 -7 -3 -152 -3 -151
75 0 74 0 0 75 c0 41 -2 109 -5 150 l-3 75 179 6 c98 4 189 7 202 8 20 1 22 6
22 64 l0 62 -465 0 -465 0 0 -25z"/>
<path d="M7168 4640 c-112 -11 -121 -15 -176 -75 -44 -48 -51 -62 -58 -112
-14 -112 55 -184 196 -205 80 -11 268 -12 284 0 6 4 42 21 79 37 50 20 75 37
93 64 51 75 21 177 -71 235 -104 67 -152 74 -347 56z m259 -136 c61 -49 56
-110 -12 -138 -47 -20 -179 -39 -218 -31 -58 11 -88 27 -102 56 -22 42 -18 62
18 97 40 39 89 51 194 49 74 -2 84 -5 120 -33z"/>
<path d="M6175 4624 c-11 -3 -46 -9 -77 -16 -32 -6 -63 -17 -69 -24 -6 -8 -18
-14 -25 -14 -20 0 -54 -74 -56 -123 -5 -114 101 -192 295 -216 124 -15 297 15
345 59 43 40 65 98 57 153 -18 138 -109 188 -338 186 -62 -1 -121 -3 -132 -5z
m287 -127 c48 -20 59 -57 31 -95 -29 -40 -74 -50 -198 -48 -135 2 -188 22
-193 72 -4 37 9 49 79 74 67 23 223 22 281 -3z"/>
<path d="M6008 3984 c-31 -16 -41 -44 -36 -95 2 -27 10 -37 38 -51 19 -10 51
-20 71 -23 51 -8 77 -29 63 -52 -6 -10 -23 -24 -38 -31 -39 -19 -84 0 -88 36
-2 21 -9 28 -32 30 -29 4 -29 3 -22 -40 9 -62 33 -78 117 -78 88 0 109 17 109
89 0 58 -8 66 -92 95 -59 19 -63 23 -63 51 0 26 4 30 28 33 30 4 67 -21 67
-45 0 -7 11 -13 25 -13 54 0 18 74 -48 99 -38 15 -66 13 -99 -5z m122 -23 c26
-18 40 -61 21 -61 -6 0 -11 6 -11 13 0 27 -37 48 -77 45 -36 -3 -38 -5 -41
-40 -3 -32 1 -39 27 -52 16 -9 38 -16 48 -16 10 0 33 -9 51 -20 27 -17 32 -25
32 -60 0 -56 -26 -80 -89 -80 -26 0 -62 5 -80 11 -27 9 -31 16 -31 45 0 37 15
46 25 14 4 -11 17 -28 31 -36 48 -32 130 6 122 58 -2 19 -14 26 -63 41 -94 28
-110 38 -113 74 -8 82 75 118 148 64z"/>
<path d="M7183 3988 l-63 -10 0 -149 0 -149 33 0 c19 0 68 -3 110 -6 l77 -7 0
37 0 36 -75 0 -75 0 0 35 0 35 70 0 70 0 0 31 0 31 -75 -7 -75 -7 0 41 0 40
78 3 c76 3 77 3 80 31 3 26 2 27 -45 26 -26 -1 -76 -6 -110 -11z m135 -15 c-2
-11 -13 -17 -33 -18 -17 -1 -49 -2 -72 -3 l-43 -2 0 -56 c0 -48 2 -55 18 -50
9 2 43 7 75 11 53 6 57 5 57 -14 0 -19 -6 -21 -70 -21 l-70 0 0 -48 0 -47 76
3 c74 4 76 4 72 -18 -3 -22 -6 -23 -93 -21 -49 1 -93 5 -98 8 -8 5 -3 261 5
268 2 2 41 8 88 13 47 5 86 10 88 11 2 0 2 -7 0 -16z"/>
<path d="M8910 3981 c-68 -36 -96 -106 -81 -201 10 -65 32 -85 101 -95 75 -10
120 15 142 80 9 28 17 76 18 108 0 64 -16 88 -76 113 -44 18 -62 18 -104 -5z
m121 -16 c39 -21 51 -56 43 -124 -10 -85 -28 -119 -70 -137 -30 -13 -45 -13
-85 -4 -29 7 -55 21 -64 33 -20 28 -20 139 0 176 33 65 111 89 176 56z"/>
<path d="M8920 3938 c-43 -29 -60 -61 -60 -115 0 -53 16 -90 44 -97 41 -11 84
-6 108 14 50 39 59 166 14 195 -41 27 -70 27 -106 3z m98 -14 c18 -12 22 -25
22 -65 0 -90 -42 -136 -112 -122 -43 8 -48 17 -48 88 0 66 3 73 40 98 31 21
69 22 98 1z"/>
<path d="M9270 3982 c-42 -22 -80 -90 -80 -142 0 -61 28 -129 61 -145 41 -22
115 -19 138 4 70 70 78 199 19 267 -35 40 -82 45 -138 16z m116 -10 c34 -29
44 -57 44 -123 0 -48 -6 -72 -25 -104 -27 -47 -58 -59 -117 -46 -52 12 -56 16
-74 77 -25 86 -1 159 64 193 46 25 81 26 108 3z"/>
<path d="M9310 3962 c-38 -6 -58 -29 -69 -84 -14 -61 0 -120 32 -143 29 -21
80 -19 100 3 21 23 36 97 29 143 -9 64 -38 89 -92 81z m68 -42 c18 -35 10
-145 -13 -170 -26 -29 -69 -26 -95 8 -18 23 -21 37 -18 89 5 78 26 105 77 101
26 -2 39 -10 49 -28z"/>
<path d="M6287 3983 c-3 -5 -1 -55 4 -113 4 -58 7 -112 7 -120 -3 -47 2 -60
26 -60 l24 0 0 150 1 150 -29 0 c-16 0 -31 -3 -33 -7z m49 -143 c-1 -105 -4
-140 -13 -140 -9 0 -13 15 -13 43 0 23 -3 86 -7 140 -6 93 -5 97 14 97 20 0
21 -5 19 -140z"/>
<path d="M6635 3978 c-3 -7 -6 -51 -7 -98 l-3 -85 -24 45 c-13 25 -39 66 -58
93 -27 37 -41 47 -63 47 l-28 0 -4 -142 c-2 -79 -3 -144 -3 -145 0 0 11 -3 25
-5 25 -3 25 -3 30 97 l5 100 30 -48 c81 -131 91 -142 123 -145 l32 -3 0 150 0
151 -25 0 c-14 0 -28 -6 -30 -12z m43 -137 l3 -132 -28 3 c-23 2 -37 18 -84
98 -31 52 -62 96 -68 98 -8 3 -11 -29 -11 -102 0 -82 -3 -106 -13 -106 -11 0
-14 29 -13 135 0 121 2 135 17 135 20 0 71 -67 120 -157 18 -34 35 -60 38 -58
2 3 3 42 2 88 -2 93 6 140 23 134 7 -2 12 -49 14 -136z"/>
<path d="M6861 3968 c-77 -38 -98 -104 -65 -201 20 -58 54 -87 105 -87 51 0
80 15 107 54 19 28 30 66 18 66 -2 0 -11 3 -19 6 -11 4 -21 -6 -32 -30 -19
-39 -40 -50 -79 -40 -34 8 -56 51 -56 107 0 50 17 71 67 82 26 5 34 2 45 -14
9 -14 23 -21 45 -21 73 0 20 85 -59 96 -21 2 -49 -4 -77 -18z m130 -19 c16
-11 29 -27 29 -35 0 -22 -48 -17 -60 6 -7 14 -21 20 -45 20 -78 0 -118 -87
-77 -167 23 -44 37 -53 82 -53 30 0 70 33 70 57 0 7 7 13 15 13 20 0 19 -8 -7
-47 -28 -40 -67 -57 -112 -49 -45 9 -72 43 -87 111 -10 47 -9 57 7 91 33 69
126 95 185 53z"/>
<path d="M7448 3983 c-2 -5 -2 -74 0 -155 l3 -148 30 0 29 0 0 65 0 65 43 0
c53 0 73 -19 83 -78 6 -36 10 -43 28 -40 18 3 21 9 19 46 -1 24 -9 55 -17 68
-20 29 -20 26 4 54 42 49 13 106 -60 121 -56 10 -158 12 -162 2z m192 -26 c35
-17 40 -70 10 -103 l-22 -23 21 -27 c13 -17 21 -41 21 -65 0 -51 -16 -50 -23
2 -8 63 -30 80 -96 77 l-56 -3 0 -60 c0 -49 -3 -60 -17 -63 -16 -3 -18 9 -18
137 0 124 2 140 18 145 26 7 134 -4 162 -17z"/>
<path d="M7488 3938 c-3 -7 -3 -30 0 -50 l4 -38 63 0 c72 0 100 17 89 54 -10
34 -34 46 -95 46 -36 0 -59 -4 -61 -12z m123 -8 c23 -13 25 -55 3 -64 -9 -3
-38 -6 -65 -6 l-49 0 0 40 0 40 46 0 c25 0 54 -5 65 -10z"/>
<path d="M8337 3981 l-68 -6 -5 -147 -5 -148 31 0 30 0 0 70 0 70 65 0 c64 0
65 1 65 26 0 27 0 27 -60 21 -65 -6 -74 -1 -64 38 6 24 10 25 76 25 l69 0 -3
28 c-3 31 -15 33 -131 23z m117 -33 c-3 -4 -36 -8 -75 -8 l-69 0 0 -46 0 -46
65 7 c56 6 65 4 65 -9 0 -13 -13 -16 -70 -16 l-70 0 0 -70 c0 -58 -3 -70 -16
-70 -15 0 -16 10 -11 83 4 45 7 108 7 139 l0 57 83 3 c76 3 103 -4 91 -24z"/>
<path d="M8557 3983 c-9 -8 -9 -196 0 -258 l6 -48 91 7 c94 6 113 14 103 40
-5 12 -22 16 -74 16 l-68 0 3 125 4 125 -30 0 c-16 0 -32 -3 -35 -7z m40 -11
c8 -5 11 -44 10 -126 l-2 -119 68 2 c53 2 67 -1 67 -12 0 -11 -20 -16 -82 -19
-46 -3 -84 -5 -85 -4 -2 1 -5 264 -4 279 1 9 13 9 28 -1z"/>
<path d="M9575 3983 c-19 -4 -20 -11 -18 -151 l1 -147 29 0 c28 0 28 0 26 63
l-1 62 42 0 c56 0 75 -16 84 -70 7 -40 11 -45 35 -48 27 -3 28 -2 22 35 -4 21
-14 54 -23 73 -16 33 -16 36 0 53 22 21 23 65 3 94 -25 35 -120 52 -200 36z
m131 -14 c53 -14 78 -44 68 -83 -3 -15 -15 -31 -25 -37 -19 -9 -19 -10 1 -37
22 -31 38 -112 22 -112 -11 0 -14 9 -27 65 -11 47 -22 55 -86 55 l-59 0 0 -65
c0 -51 -3 -65 -15 -65 -13 0 -15 22 -15 139 l0 140 33 4 c17 2 38 5 45 5 7 1
33 -3 58 -9z"/>
<path d="M9593 3920 c4 -18 7 -43 7 -56 0 -22 4 -24 55 -24 65 0 101 25 89 63
-10 36 -21 41 -91 45 l-66 5 6 -33z m107 11 c19 -5 25 -13 25 -36 0 -29 -1
-30 -57 -33 l-58 -3 0 41 c0 39 1 40 33 39 17 -1 43 -4 57 -8z"/>
<path d="M7790 3978 c0 -2 -2 -67 -4 -145 l-3 -143 108 0 109 0 0 31 0 32 -79
-7 -79 -6 -4 34 -4 35 76 3 c73 3 75 4 75 28 0 25 -1 25 -76 22 l-76 -4 -1 36
-1 36 84 0 c84 0 85 0 85 25 l0 25 -105 0 c-58 0 -105 -1 -105 -2z m178 -14
c47 -13 18 -24 -63 -24 l-85 0 0 -45 0 -45 80 0 c44 0 80 -4 80 -9 0 -12 -76
-25 -90 -16 -6 4 -24 3 -41 0 -28 -6 -30 -9 -27 -48 l3 -42 83 2 c45 1 82 -1
82 -5 -1 -21 -24 -27 -109 -29 -91 -2 -93 -2 -87 20 3 12 6 73 6 135 l0 112
73 0 c39 0 82 -3 95 -6z"/>
</g>
</svg>
